<?xml version="1.0" encoding="UTF-8"?>
<svg id="Layer_1" xmlns="http://www.w3.org/2000/svg" version="1.1" viewBox="0 0 32 32">
  <path d="M26.43,5.58C20.97-.17,11.04-.17,5.58,5.58-3.59,14.8,2.99,30.67,16,30.63c13.02.04,19.6-15.83,10.43-25.05ZM16,30.33c-7.66.07-13.87-6.85-13.06-14.33.57-6.69,6.53-11.87,13.06-11.78,6.53-.08,12.47,5.09,13.05,11.78.83,7.48-5.38,14.4-13.05,14.33Z"/>
  <path d="M18.02,24.43c-.14.02-.28.04-.42.05,3.78-1.09,6.23-4.94,5.65-8.51-.7-5.7-7.76-8.39-12.04-4.57-4.51,4.2-2.64,10.8,2.82,13.04.12.05.24.1.36.14-6.37-1.2-8.67-9.58-3.79-13.85,4.73-4.47,12.87-1.29,13.42,5.17.51,3.73-2.41,7.95-6,8.53Z"/>
</svg>